Coordinates
version=1
nRows=11
nColumns=36
inDegrees=yes

Units are S.I. units (second, meters, Newtons, ...)
If the header above contains a line with 'inDegrees', this indicates whether rotational values are in degrees (yes) or radians (no).

endheader
time	pelvis_tilt	pelvis_list	pelvis_rotation	pelvis_tx	pelvis_ty	pelvis_tz	hip_flexion_r	hip_adduction_r	hip_rotation_r	knee_angle_r	knee_angle_r_beta	ankle_angle_r	subtalar_angle_r	mtp_angle_r	hip_flexion_l	hip_adduction_l	hip_rotation_l	knee_angle_l	knee_angle_l_beta	ankle_angle_l	subtalar_angle_l	mtp_angle_l	lumbar_extension	lumbar_bending	lumbar_rotation	arm_flex_r	arm_add_r	arm_rot_r	elbow_flex_r	pro_sup_r	arm_flex_l	arm_add_l	arm_rot_l	elbow_flex_l	pro_sup_l
      1.24000000	     -5.01552901	     -0.98380959	      3.81694623	     -0.33387782	      0.75550688	     -0.56787338	     66.00131712	     -6.71853158	     -8.38222229	     96.57698676	      1.68558640	     25.05523539	     -9.23685556	     -7.44856167	     65.33344493	     -3.46100851	      1.16983786	     97.37360958	      1.69949009	     28.23820757	    -12.52275468	     -7.44856167	    -31.48692902	      0.15307338	      1.02230841	    -11.93975893	     -6.86329323	    -22.27348620	     71.12441625	    102.27133017	    -17.73162679	     -0.78242204	    -25.79937372	     86.96505704	     91.34272711
      1.25000000	     -5.48032522	     -1.08048863	      3.83561565	     -0.33280735	      0.74394803	     -0.56788113	     67.45550442	     -6.90223485	     -8.20389819	     98.49522708	      1.71906601	     27.01959497	     -7.76611079	     -7.45047786	     67.29906675	     -3.13043529	      1.73035713	     99.63772717	      1.73900640	     27.93339770	    -13.03708259	     -7.45047786	    -32.11157715	      0.29284312	      0.27578440	     -8.70919286	     -7.41372691	    -19.95164991	     71.37486623	    102.99499708	    -16.11292630	     -1.19538574	    -25.76617133	     87.70569246	     91.60115670
      1.26000000	     -6.01393155	     -1.25446002	      3.84263781	     -0.33162372	      0.73331833	     -0.56804001	     68.64352291	     -6.94711315	     -8.19469959	     99.97538393	      1.74489962	     28.79407472	     -7.45872239	     -7.45125045	     69.06090401	     -2.85606333	      2.27511052	    101.54802754	      1.77234743	     28.18074232	    -13.25607403	     -7.45125045	    -32.59130097	      0.52426118	      0.12689073	     -6.04263781	     -7.66873835	    -18.86976576	     72.30777499	    103.29397618	    -14.49886230	     -1.77254916	    -25.00990085	     88.56865058	     91.85004073
      1.27000000	     -6.40521160	     -1.32151788	      3.84719345	     -0.33002160	      0.72412648	     -0.56834101	     69.34391412	     -6.99198983	     -8.22944718	    101.10653828	      1.76464199	     30.77075266	     -7.50745502	     -7.45165932	     70.25711154	     -2.55760975	      2.59318939	    103.06018722	      1.79873959	     28.86743233	    -13.67804323	     -7.45165932	    -33.10243613	      0.71467071	     -0.13305960	     -3.35739679	     -7.75234302	    -18.11900799	     73.23243806	    103.45223665	    -13.05327633	     -2.41881952	    -24.20496379	     89.30557809	     92.01086714
      1.28000000	     -6.71338315	     -1.30606639	      3.93412988	     -0.32812118	      0.71593721	     -0.56888616	     69.72079313	     -7.20639703	     -8.30346363	    102.12466101	      1.78241158	     33.82117769	     -5.89356811	     -7.45295548	     71.08697639	     -2.18889484	      2.72356288	    104.29590342	      1.82030691	     29.92030822	    -13.75920809	     -7.45295548	    -33.52600494	      0.86138348	     -0.69340396	     -0.54426288	     -8.05229902	    -16.82088098	     73.60083941	    103.61035750	    -11.87282853	     -2.98242445	    -23.74449379	     90.12100081	     92.19637327
      1.29000000	     -7.06662829	     -1.33056155	      4.05367848	     -0.32616439	      0.70867450	     -0.56937468	     70.10342602	     -7.38048540	     -8.58175841	    102.91699719	      1.79624046	     35.42382030	     -6.41560772	     -7.45325812	     71.77946589	     -1.83957947	      2.78777365	    105.26546530	      1.83722896	     30.98534526	    -14.33623022	     -7.45325812	    -33.76669873	      1.07651515	     -0.92238583	      1.96100302	     -8.00905487	    -16.59083021	     74.11462753	    103.64105096	    -10.52807592	     -3.56768871	    -23.18216676	     90.50555950	     92.29019481
      1.30000000	     -7.34221382	     -1.37068006	      4.10886437	     -0.32411425	      0.70274418	     -0.56976847	     70.45113036	     -7.47231970	     -8.69160678	    103.71541392	      1.81017546	     37.33212005	     -5.62070795	     -7.45434342	     72.15473282	     -1.57275863	      2.86826604	    106.00535237	      1.85014242	     32.55840474	    -14.27031135	     -7.45434342	    -33.96122909	      1.21484309	     -1.19996801	      4.74390316	     -8.08229057	    -15.94653878	     73.65896121	    103.58281755	     -9.21481278	     -4.11653407	    -22.65684708	     90.69798395	     92.47197474
      1.31000000	     -7.60137987	     -1.49331404	      4.05569135	     -0.32226494	      0.69791983	     -0.56997480	     70.97548897	     -7.36331201	     -8.69886632	    104.44948263	      1.82298737	     37.87335546	     -5.76272984	     -7.45471396	     72.36111377	     -1.41694222	      3.01404398	    106.51328721	      1.85900756	     33.94658649	    -14.79766639	     -7.45471396	    -34.15282908	      1.39341684	     -1.14227825	      7.27514384	     -8.10746772	    -15.66087587	     73.49281683	    103.54791087	     -7.65552776	     -4.59507974	    -22.05206718	     90.53984129	     92.51678155
      1.32000000	     -7.82306745	     -1.65932850	      3.92220636	     -0.32062764	      0.69420680	     -0.57002936	     71.58957329	     -7.18262244	     -8.60939045	    105.17554332	      1.83565952	     37.93402914	     -5.49816128	     -7.45668788	     72.39556234	     -1.39114694	      3.24255093	    106.87322214	      1.86528961	     35.81414142	    -14.21387724	     -7.45668788	    -34.30472850	      1.53493116	     -1.13347031	     10.12523523	     -8.41715689	    -14.63666509	     72.31252862	    103.27408438	     -6.02741570	     -5.03620472	    -21.51395969	     90.12847324	     92.62595051
      1.33000000	     -8.01359941	     -1.88523038	      3.79798682	     -0.31924942	      0.69148552	     -0.57015399	     72.18438899	     -6.99005266	     -8.52336164	    105.78863423	      1.84635998	     37.48562790	     -5.35016202	     -7.45704443	     72.38143512	     -1.33093025	      3.54345650	    107.06549828	      1.86864546	     36.92189003	    -14.71887706	     -7.45704443	    -34.48342684	      1.73923749	     -0.75009536	     12.71868903	     -8.77017812	    -14.11789389	     71.23215839	    103.17730709	     -3.95518425	     -5.39848882	    -20.62828916	     89.31917148	     92.58495290
      1.34000000	     -8.17696766	     -2.10506562	      3.64821325	     -0.31800594	      0.68992260	     -0.57027985	     72.67726263	     -6.71181108	     -8.40341585	    106.22133559	      1.85391204	     36.93453171	     -5.30611976	     -7.45740644	     72.36897431	     -1.28934685	      3.88842695	    107.20708061	      1.87111654	     37.60547931	    -14.85068132	     -7.45740644	    -34.64718825	      1.90880522	     -0.37133495	     15.52215385	     -9.20351570	    -13.33701528	     69.50172582	    103.05513227	     -1.69710964	     -5.79642502	    -19.53635902	     88.11163612	     92.51848454
